<svg width="40" height="41" viewBox="0 0 40 41" fill="none" xmlns="http://www.w3.org/2000/svg">
<g clip-path="url(#clip0_71_850)">
<path d="M0 0.5H40V40.5H0V0.5Z" fill="#74ACDF"/>
<path d="M0 13.8359H40V27.1641H0V13.8359Z" fill="white"/>
<path d="M19.7441 20.604L22.0241 25.564C22.0241 25.564 22.0641 25.66 22.1281 25.636C22.1921 25.604 22.1521 25.516 22.1521 25.516L20.2561 20.396M20.2001 22.324C20.1681 23.076 20.6321 23.492 20.5761 24.164C20.5121 24.844 20.8801 25.22 20.9761 25.484C21.0561 25.748 20.8721 25.9 20.9521 25.94C21.0321 25.98 21.1921 25.772 21.1441 25.396C21.0881 25.028 20.8081 24.916 20.8721 24.092C20.9361 23.268 20.5361 23.076 20.6321 22.332" fill="#F6B40E"/>
<path d="M19.7441 20.604L22.0241 25.564C22.0241 25.564 22.0641 25.66 22.1281 25.636C22.1921 25.604 22.1521 25.516 22.1521 25.516L20.2561 20.396M20.2001 22.324C20.1681 23.076 20.6321 23.492 20.5761 24.164C20.5121 24.844 20.8801 25.22 20.9761 25.484C21.0561 25.748 20.8721 25.9 20.9521 25.94C21.0321 25.98 21.1921 25.772 21.1441 25.396C21.0881 25.028 20.8081 24.916 20.8721 24.092C20.9361 23.268 20.5361 23.076 20.6321 22.332" stroke="#85340A" stroke-width="0.1408"/>
<path d="M19.7251 20.4981L19.9334 25.953C19.9334 25.953 19.9336 26.057 20.002 26.0594C20.0733 26.0543 20.0701 25.9577 20.0701 25.9577L20.2777 20.5018M19.4882 22.2617C19.1708 22.9442 19.4403 23.5061 19.1314 24.1055C18.8121 24.7092 19.0082 25.1974 18.9958 25.4781C18.9687 25.7526 18.7405 25.8226 18.7991 25.8902C18.8577 25.9577 19.0852 25.8268 19.1847 25.4611C19.2738 25.0996 19.058 24.889 19.4324 24.1522C19.8069 23.4154 19.5108 23.085 19.8842 22.4344" fill="#F6B40E"/>
<path d="M19.7251 20.4981L19.9334 25.953C19.9334 25.953 19.9336 26.057 20.002 26.0594C20.0733 26.0543 20.0701 25.9577 20.0701 25.9577L20.2777 20.5018M19.4882 22.2617C19.1708 22.9442 19.4403 23.5061 19.1314 24.1055C18.8121 24.7092 19.0082 25.1974 18.9958 25.4781C18.9687 25.7526 18.7405 25.8226 18.7991 25.8902C18.8577 25.9577 19.0852 25.8268 19.1847 25.4611C19.2738 25.0996 19.058 24.889 19.4324 24.1522C19.8069 23.4154 19.5108 23.085 19.8842 22.4344" stroke="#85340A" stroke-width="0.1408"/>
<path d="M19.7455 20.3924L17.8505 25.5119C17.8505 25.5119 17.8109 25.6081 17.8731 25.6363C17.941 25.659 17.9749 25.5685 17.9749 25.5685L20.2546 20.6074M18.8517 21.9311C18.2973 22.4402 18.3313 23.0625 17.8165 23.4981C17.2904 23.9336 17.2848 24.4597 17.166 24.7143C17.0359 24.9575 16.7983 24.9349 16.8266 25.0197C16.8548 25.1046 17.1151 25.0707 17.347 24.7708C17.5676 24.471 17.4488 24.1938 18.0767 23.6564C18.7046 23.119 18.5576 22.7004 19.1515 22.2422" fill="#F6B40E"/>
<path d="M19.7455 20.3924L17.8505 25.5119C17.8505 25.5119 17.8109 25.6081 17.8731 25.6363C17.941 25.659 17.9749 25.5685 17.9749 25.5685L20.2546 20.6074M18.8517 21.9311C18.2973 22.4402 18.3313 23.0625 17.8165 23.4981C17.2904 23.9336 17.2848 24.4597 17.166 24.7143C17.0359 24.9575 16.7983 24.9349 16.8266 25.0197C16.8548 25.1046 17.1151 25.0707 17.347 24.7708C17.5676 24.471 17.4488 24.1938 18.0767 23.6564C18.7046 23.119 18.5576 22.7004 19.1515 22.2422" stroke="#85340A" stroke-width="0.1408"/>
<path d="M19.8078 20.3032L16.0979 24.3078C16.0979 24.3078 16.0245 24.3815 16.0712 24.4314C16.1252 24.4783 16.1912 24.4077 16.1912 24.4077L20.1959 20.6967M18.3933 21.3827C17.6863 21.6409 17.4795 22.2288 16.8372 22.4343C16.1845 22.6353 15.9779 23.1192 15.7708 23.3089C15.5575 23.4839 15.3466 23.3721 15.3403 23.4613C15.334 23.5505 15.5873 23.6187 15.9164 23.4305C16.2349 23.2379 16.2312 22.9364 17.017 22.6802C17.8028 22.424 17.8271 21.9809 18.5512 21.7849" fill="#F6B40E"/>
<path d="M19.8078 20.3032L16.0979 24.3078C16.0979 24.3078 16.0245 24.3815 16.0712 24.4314C16.1252 24.4783 16.1912 24.4077 16.1912 24.4077L20.1959 20.6967M18.3933 21.3827C17.6863 21.6409 17.4795 22.2288 16.8372 22.4343C16.1845 22.6353 15.9779 23.1192 15.7708 23.3089C15.5575 23.4839 15.3466 23.3721 15.3403 23.4613C15.334 23.5505 15.5873 23.6187 15.9164 23.4305C16.2349 23.2379 16.2312 22.9364 17.017 22.6802C17.8028 22.424 17.8271 21.9809 18.5512 21.7849" stroke="#85340A" stroke-width="0.1408"/>
<path d="M20.345 22.4519C20.385 23.1719 20.793 23.4919 20.713 24.1559C20.889 23.6359 20.465 23.2279 20.489 22.4599M19.873 20.5559L21.433 23.9639L20.129 20.4519" fill="#85340A"/>
<path d="M19.5711 22.4349C19.3325 23.1154 19.587 23.5672 19.259 24.15C19.6206 23.7369 19.385 23.1977 19.7011 22.4974M19.8606 20.5026L19.9977 24.2481L20.1369 20.5045" fill="#85340A"/>
<path d="M18.8649 22.1235C18.384 22.6609 18.4462 23.1756 17.9202 23.5886C18.4123 23.3453 18.401 22.757 18.961 22.2309M19.8718 20.449L18.565 23.9619L20.1263 20.5565" fill="#85340A"/>
<path d="M18.329 21.5647C17.6791 21.8772 17.5396 22.3766 16.8955 22.5568C17.4433 22.5204 17.658 21.9725 18.3767 21.7008M19.9 20.4031L17.3484 23.1485L20.0941 20.5998" fill="#85340A"/>
<path d="M19.8955 20.2439L14.9355 22.5239C14.9355 22.5239 14.8395 22.5639 14.8635 22.6279C14.8955 22.6919 14.9835 22.6519 14.9835 22.6519L20.1035 20.7559M18.1755 20.6999C17.4235 20.6679 17.0075 21.1319 16.3355 21.0759C15.6555 21.0119 15.2795 21.3799 15.0155 21.4759C14.7515 21.5559 14.5995 21.3719 14.5595 21.4519C14.5195 21.5319 14.7275 21.6919 15.1035 21.6439C15.4715 21.5879 15.5835 21.3079 16.4075 21.3719C17.2315 21.4359 17.4235 21.0359 18.1675 21.1319" fill="#F6B40E"/>
<path d="M19.8955 20.2439L14.9355 22.5239C14.9355 22.5239 14.8395 22.5639 14.8635 22.6279C14.8955 22.6919 14.9835 22.6519 14.9835 22.6519L20.1035 20.7559M18.1755 20.6999C17.4235 20.6679 17.0075 21.1319 16.3355 21.0759C15.6555 21.0119 15.2795 21.3799 15.0155 21.4759C14.7515 21.5559 14.5995 21.3719 14.5595 21.4519C14.5195 21.5319 14.7275 21.6919 15.1035 21.6439C15.4715 21.5879 15.5835 21.3079 16.4075 21.3719C17.2315 21.4359 17.4235 21.0359 18.1675 21.1319" stroke="#85340A" stroke-width="0.1408"/>
<path d="M20.0009 20.2236L14.546 20.432C14.546 20.432 14.442 20.4322 14.4397 20.5005C14.4447 20.5719 14.5413 20.5686 14.5413 20.5686L19.9972 20.7763M18.2374 19.9867C17.5549 19.6694 16.993 19.9388 16.3935 19.6299C15.7898 19.3106 15.3016 19.5067 15.021 19.4944C14.7464 19.4672 14.6764 19.2391 14.6088 19.2977C14.5413 19.3563 14.6722 19.5837 15.038 19.6832C15.3994 19.7723 15.61 19.5565 16.3468 19.931C17.0836 20.3054 17.414 20.0093 18.0647 20.3828" fill="#F6B40E"/>
<path d="M20.0009 20.2236L14.546 20.432C14.546 20.432 14.442 20.4322 14.4397 20.5005C14.4447 20.5719 14.5413 20.5686 14.5413 20.5686L19.9972 20.7763M18.2374 19.9867C17.5549 19.6694 16.993 19.9388 16.3935 19.6299C15.7898 19.3106 15.3016 19.5067 15.021 19.4944C14.7464 19.4672 14.6764 19.2391 14.6088 19.2977C14.5413 19.3563 14.6722 19.5837 15.038 19.6832C15.3994 19.7723 15.61 19.5565 16.3468 19.931C17.0836 20.3054 17.414 20.0093 18.0647 20.3828" stroke="#85340A" stroke-width="0.1408"/>
<path d="M20.1068 20.2455L14.9874 18.3505C14.9874 18.3505 14.8912 18.3109 14.8629 18.3731C14.8403 18.441 14.9308 18.4749 14.9308 18.4749L19.8919 20.7546M18.5682 19.3517C18.059 18.7973 17.4368 18.8313 17.0012 18.3165C16.5656 17.7904 16.0395 17.7848 15.785 17.666C15.5417 17.5359 15.5644 17.2983 15.4795 17.3266C15.3947 17.3548 15.4286 17.6151 15.7284 17.847C16.0282 18.0676 16.3054 17.9488 16.8428 18.5767C17.3802 19.2046 17.7988 19.0576 18.257 19.6515" fill="#F6B40E"/>
<path d="M20.1068 20.2455L14.9874 18.3505C14.9874 18.3505 14.8912 18.3109 14.8629 18.3731C14.8403 18.441 14.9308 18.4749 14.9308 18.4749L19.8919 20.7546M18.5682 19.3517C18.059 18.7973 17.4368 18.8313 17.0012 18.3165C16.5656 17.7904 16.0395 17.7848 15.785 17.666C15.5417 17.5359 15.5644 17.2983 15.4795 17.3266C15.3947 17.3548 15.4286 17.6151 15.7284 17.847C16.0282 18.0676 16.3054 17.9488 16.8428 18.5767C17.3802 19.2046 17.7988 19.0576 18.257 19.6515" stroke="#85340A" stroke-width="0.1408"/>
<path d="M20.1958 20.3059L16.1912 16.596C16.1912 16.596 16.1175 16.5226 16.0676 16.5693C16.0207 16.6234 16.0913 16.6893 16.0913 16.6893L19.8024 20.694M19.1163 18.8914C18.8581 18.1844 18.2702 17.9776 18.0648 17.3353C17.8637 16.6826 17.3798 16.476 17.1901 16.2689C17.0151 16.0556 17.127 15.8447 17.0377 15.8384C16.9485 15.8321 16.8803 16.0855 17.0685 16.4145C17.2611 16.733 17.5627 16.7293 17.8189 17.5151C18.0751 18.3009 18.5181 18.3252 18.7141 19.0493" fill="#F6B40E"/>
<path d="M20.1958 20.3059L16.1912 16.596C16.1912 16.596 16.1175 16.5226 16.0676 16.5693C16.0207 16.6234 16.0913 16.6893 16.0913 16.6893L19.8024 20.694M19.1163 18.8914C18.8581 18.1844 18.2702 17.9776 18.0648 17.3353C17.8637 16.6826 17.3798 16.476 17.1901 16.2689C17.0151 16.0556 17.127 15.8447 17.0377 15.8384C16.9485 15.8321 16.8803 16.0855 17.0685 16.4145C17.2611 16.733 17.5627 16.7293 17.8189 17.5151C18.0751 18.3009 18.5181 18.3252 18.7141 19.0493" stroke="#85340A" stroke-width="0.1408"/>
<path d="M18.0471 20.8439C17.3271 20.8839 17.0071 21.2919 16.3431 21.2119C16.8631 21.3879 17.2711 20.9639 18.0391 20.9879M19.9431 20.3719L16.5351 21.9319L20.0471 20.6279" fill="#85340A"/>
<path d="M18.0654 20.0709C17.3849 19.8323 16.9331 20.0868 16.3502 19.7587C16.7633 20.1203 17.3025 19.8848 18.0029 20.2008M19.9977 20.3603L16.2521 20.4974L19.9958 20.6367" fill="#85340A"/>
<path d="M18.3751 19.3629C17.8377 18.8821 17.3229 18.9443 16.91 18.4182C17.1532 18.9104 17.7415 18.899 18.2676 19.4591M20.0495 20.3698L16.5366 19.0631L19.942 20.6244" fill="#85340A"/>
<path d="M18.9333 18.8282C18.6208 18.1783 18.1214 18.0388 17.9412 17.3948C17.9776 17.9425 18.5255 18.1572 18.7972 18.8759M20.095 20.3993L17.3495 17.8477L19.8983 20.5933" fill="#85340A"/>
<path d="M20.2559 20.396L17.9759 15.436C17.9759 15.436 17.9359 15.34 17.8719 15.364C17.8079 15.396 17.8479 15.484 17.8479 15.484L19.7439 20.604M19.7999 18.676C19.8319 17.924 19.3679 17.508 19.4239 16.836C19.4879 16.156 19.1199 15.78 19.0239 15.516C18.9439 15.252 19.1279 15.1 19.0479 15.06C18.9679 15.02 18.8079 15.228 18.8559 15.604C18.9119 15.972 19.1919 16.084 19.1279 16.908C19.0639 17.732 19.4639 17.924 19.3679 18.668" fill="#F6B40E"/>
<path d="M20.2559 20.396L17.9759 15.436C17.9759 15.436 17.9359 15.34 17.8719 15.364C17.8079 15.396 17.8479 15.484 17.8479 15.484L19.7439 20.604M19.7999 18.676C19.8319 17.924 19.3679 17.508 19.4239 16.836C19.4879 16.156 19.1199 15.78 19.0239 15.516C18.9439 15.252 19.1279 15.1 19.0479 15.06C18.9679 15.02 18.8079 15.228 18.8559 15.604C18.9119 15.972 19.1919 16.084 19.1279 16.908C19.0639 17.732 19.4639 17.924 19.3679 18.668" stroke="#85340A" stroke-width="0.1408"/>
<path d="M20.2749 20.5019L20.0666 15.047C20.0666 15.047 20.0664 14.943 19.998 14.9406C19.9267 14.9457 19.93 15.0423 19.93 15.0423L19.7223 20.4982M20.5118 18.7383C20.8292 18.0558 20.5597 17.4939 20.8686 16.8945C21.1879 16.2908 20.9918 15.8026 21.0042 15.5219C21.0313 15.2474 21.2595 15.1774 21.2009 15.1098C21.1423 15.0423 20.9148 15.1732 20.8153 15.5389C20.7262 15.9004 20.942 16.111 20.5676 16.8478C20.1931 17.5846 20.4892 17.915 20.1158 18.5656" fill="#F6B40E"/>
<path d="M20.2749 20.5019L20.0666 15.047C20.0666 15.047 20.0664 14.943 19.998 14.9406C19.9267 14.9457 19.93 15.0423 19.93 15.0423L19.7223 20.4982M20.5118 18.7383C20.8292 18.0558 20.5597 17.4939 20.8686 16.8945C21.1879 16.2908 20.9918 15.8026 21.0042 15.5219C21.0313 15.2474 21.2595 15.1774 21.2009 15.1098C21.1423 15.0423 20.9148 15.1732 20.8153 15.5389C20.7262 15.9004 20.942 16.111 20.5676 16.8478C20.1931 17.5846 20.4892 17.915 20.1158 18.5656" stroke="#85340A" stroke-width="0.1408"/>
<path d="M20.2545 20.6076L22.1495 15.4881C22.1495 15.4881 22.1891 15.3919 22.1269 15.3637C22.059 15.341 22.0251 15.4315 22.0251 15.4315L19.7454 20.3926M21.1483 19.0689C21.7027 18.5598 21.6687 17.9375 22.1835 17.5019C22.7096 17.0664 22.7152 16.5403 22.834 16.2857C22.9641 16.0425 23.2017 16.0651 23.1734 15.9803C23.1452 15.8954 22.8849 15.9293 22.653 16.2292C22.4324 16.529 22.5512 16.8062 21.9233 17.3436C21.2954 17.881 21.4424 18.2996 20.8485 18.7578" fill="#F6B40E"/>
<path d="M20.2545 20.6076L22.1495 15.4881C22.1495 15.4881 22.1891 15.3919 22.1269 15.3637C22.059 15.341 22.0251 15.4315 22.0251 15.4315L19.7454 20.3926M21.1483 19.0689C21.7027 18.5598 21.6687 17.9375 22.1835 17.5019C22.7096 17.0664 22.7152 16.5403 22.834 16.2857C22.9641 16.0425 23.2017 16.0651 23.1734 15.9803C23.1452 15.8954 22.8849 15.9293 22.653 16.2292C22.4324 16.529 22.5512 16.8062 21.9233 17.3436C21.2954 17.881 21.4424 18.2996 20.8485 18.7578" stroke="#85340A" stroke-width="0.1408"/>
<path d="M20.1922 20.6968L23.9021 16.6922C23.9021 16.6922 23.9755 16.6185 23.9288 16.5686C23.8748 16.5217 23.8088 16.5923 23.8088 16.5923L19.8041 20.3033M21.6067 19.6173C22.3137 19.3591 22.5205 18.7712 23.1628 18.5657C23.8155 18.3647 24.0221 17.8808 24.2292 17.6911C24.4425 17.5161 24.6534 17.6279 24.6597 17.5387C24.666 17.4495 24.4127 17.3813 24.0836 17.5695C23.7651 17.7621 23.7688 18.0636 22.983 18.3198C22.1972 18.576 22.1729 19.0191 21.4488 19.2151" fill="#F6B40E"/>
<path d="M20.1922 20.6968L23.9021 16.6922C23.9021 16.6922 23.9755 16.6185 23.9288 16.5686C23.8748 16.5217 23.8088 16.5923 23.8088 16.5923L19.8041 20.3033M21.6067 19.6173C22.3137 19.3591 22.5205 18.7712 23.1628 18.5657C23.8155 18.3647 24.0221 17.8808 24.2292 17.6911C24.4425 17.5161 24.6534 17.6279 24.6597 17.5387C24.666 17.4495 24.4127 17.3813 24.0836 17.5695C23.7651 17.7621 23.7688 18.0636 22.983 18.3198C22.1972 18.576 22.1729 19.0191 21.4488 19.2151" stroke="#85340A" stroke-width="0.1408"/>
<path d="M19.655 18.5481C19.615 17.8281 19.207 17.5081 19.287 16.8441C19.111 17.3641 19.535 17.7721 19.511 18.5401M20.127 20.4441L18.567 17.0361L19.871 20.5481" fill="#85340A"/>
<path d="M20.4289 18.5649C20.6675 17.8844 20.413 17.4326 20.741 16.8498C20.3794 17.2628 20.615 17.802 20.2989 18.5024M20.1394 20.4972L20.0023 16.7516L19.8631 20.4953" fill="#85340A"/>
<path d="M21.1351 18.8765C21.616 18.3391 21.5538 17.8244 22.0798 17.4114C21.5877 17.6547 21.599 18.243 21.039 18.7691M20.1282 20.551L21.435 17.0381L19.8737 20.4435" fill="#85340A"/>
<path d="M21.671 19.4353C22.3209 19.1228 22.4604 18.6234 23.1045 18.4432C22.5567 18.4796 22.342 19.0275 21.6233 19.2992M20.1 20.5969L22.6516 17.8515L19.9059 20.4002" fill="#85340A"/>
<path d="M20.1045 20.7561L25.0645 18.4761C25.0645 18.4761 25.1605 18.4361 25.1365 18.3721C25.1045 18.3081 25.0165 18.3481 25.0165 18.3481L19.8965 20.2441M21.8245 20.3001C22.5765 20.3321 22.9925 19.8681 23.6645 19.9241C24.3445 19.9881 24.7205 19.6201 24.9845 19.5241C25.2485 19.4441 25.4005 19.6281 25.4405 19.5481C25.4805 19.4681 25.2725 19.3081 24.8965 19.3561C24.5285 19.4121 24.4165 19.6921 23.5925 19.6281C22.7685 19.5641 22.5765 19.9641 21.8325 19.8681" fill="#F6B40E"/>
<path d="M20.1045 20.7561L25.0645 18.4761C25.0645 18.4761 25.1605 18.4361 25.1365 18.3721C25.1045 18.3081 25.0165 18.3481 25.0165 18.3481L19.8965 20.2441M21.8245 20.3001C22.5765 20.3321 22.9925 19.8681 23.6645 19.9241C24.3445 19.9881 24.7205 19.6201 24.9845 19.5241C25.2485 19.4441 25.4005 19.6281 25.4405 19.5481C25.4805 19.4681 25.2725 19.3081 24.8965 19.3561C24.5285 19.4121 24.4165 19.6921 23.5925 19.6281C22.7685 19.5641 22.5765 19.9641 21.8325 19.8681" stroke="#85340A" stroke-width="0.1408"/>
<path d="M19.9991 20.7763L25.454 20.568C25.454 20.568 25.558 20.5678 25.5603 20.4994C25.5553 20.4281 25.4587 20.4314 25.4587 20.4314L20.0028 20.2237M21.7626 21.0132C22.4451 21.3306 23.007 21.0611 23.6065 21.37C24.2102 21.6894 24.6984 21.4933 24.979 21.5056C25.2536 21.5327 25.3236 21.7609 25.3912 21.7023C25.4587 21.6437 25.3278 21.4162 24.962 21.3167C24.6006 21.2276 24.39 21.4434 23.6532 21.069C22.9164 20.6945 22.586 20.9906 21.9353 20.6172" fill="#F6B40E"/>
<path d="M19.9991 20.7763L25.454 20.568C25.454 20.568 25.558 20.5678 25.5603 20.4994C25.5553 20.4281 25.4587 20.4314 25.4587 20.4314L20.0028 20.2237M21.7626 21.0132C22.4451 21.3306 23.007 21.0611 23.6065 21.37C24.2102 21.6894 24.6984 21.4933 24.979 21.5056C25.2536 21.5327 25.3236 21.7609 25.3912 21.7023C25.4587 21.6437 25.3278 21.4162 24.962 21.3167C24.6006 21.2276 24.39 21.4434 23.6532 21.069C22.9164 20.6945 22.586 20.9906 21.9353 20.6172" stroke="#85340A" stroke-width="0.1408"/>
<path d="M19.8932 20.7545L25.0126 22.6495C25.0126 22.6495 25.1088 22.6891 25.1371 22.6269C25.1597 22.559 25.0692 22.5251 25.0692 22.5251L20.1081 20.2454M21.4318 21.6483C21.941 22.2027 22.5632 22.1687 22.9988 22.6835C23.4344 23.2096 23.9605 23.2152 24.215 23.334C24.4583 23.4641 24.4356 23.7017 24.5205 23.6734C24.6053 23.6452 24.5714 23.3849 24.2716 23.153C23.9718 22.9324 23.6946 23.0512 23.1572 22.4233C22.6198 21.7954 22.2012 21.9424 21.743 21.3485" fill="#F6B40E"/>
<path d="M19.8932 20.7545L25.0126 22.6495C25.0126 22.6495 25.1088 22.6891 25.1371 22.6269C25.1597 22.559 25.0692 22.5251 25.0692 22.5251L20.1081 20.2454M21.4318 21.6483C21.941 22.2027 22.5632 22.1687 22.9988 22.6835C23.4344 23.2096 23.9605 23.2152 24.215 23.334C24.4583 23.4641 24.4356 23.7017 24.5205 23.6734C24.6053 23.6452 24.5714 23.3849 24.2716 23.153C23.9718 22.9324 23.6946 23.0512 23.1572 22.4233C22.6198 21.7954 22.2012 21.9424 21.743 21.3485" stroke="#85340A" stroke-width="0.1408"/>
<path d="M19.8042 20.6941L23.8088 24.404C23.8088 24.404 23.8825 24.4774 23.9324 24.4307C23.9793 24.3766 23.9087 24.3107 23.9087 24.3107L20.1976 20.306M20.8837 22.1086C21.1419 22.8156 21.7298 23.0224 21.9352 23.6647C22.1363 24.3174 22.6202 24.524 22.8099 24.7311C22.9849 24.9444 22.873 25.1553 22.9623 25.1616C23.0515 25.1679 23.1197 24.9145 22.9315 24.5855C22.7389 24.267 22.4373 24.2707 22.1811 23.4849C21.9249 22.6991 21.4819 22.6748 21.2859 21.9507" fill="#F6B40E"/>
<path d="M19.8042 20.6941L23.8088 24.404C23.8088 24.404 23.8825 24.4774 23.9324 24.4307C23.9793 24.3766 23.9087 24.3107 23.9087 24.3107L20.1976 20.306M20.8837 22.1086C21.1419 22.8156 21.7298 23.0224 21.9352 23.6647C22.1363 24.3174 22.6202 24.524 22.8099 24.7311C22.9849 24.9444 22.873 25.1553 22.9623 25.1616C23.0515 25.1679 23.1197 24.9145 22.9315 24.5855C22.7389 24.267 22.4373 24.2707 22.1811 23.4849C21.9249 22.6991 21.4819 22.6748 21.2859 21.9507" stroke="#85340A" stroke-width="0.1408"/>
<path d="M21.9529 20.1561C22.6729 20.1161 22.9929 19.7081 23.6569 19.7881C23.1369 19.6121 22.7289 20.0361 21.9609 20.0121M20.0569 20.6281L23.4649 19.0681L19.9529 20.3721" fill="#85340A"/>
<path d="M21.9346 20.9291C22.6151 21.1677 23.0669 20.9132 23.6498 21.2413C23.2367 20.8797 22.6975 21.1152 21.9971 20.7992M20.0023 20.6397L23.7479 20.5026L20.0042 20.3633" fill="#85340A"/>
<path d="M21.6249 21.6371C22.1623 22.1179 22.6771 22.0557 23.09 22.5818C22.8468 22.0896 22.2585 22.101 21.7324 21.5409M19.9505 20.6302L23.4634 21.9369L20.058 20.3756" fill="#85340A"/>
<path d="M21.0667 22.1718C21.3792 22.8217 21.8786 22.9612 22.0588 23.6052C22.0224 23.0575 21.4745 22.8428 21.2028 22.1241M19.905 20.6007L22.6505 23.1523L20.1017 20.4067" fill="#85340A"/>
<path d="M20 22.7188C21.2254 22.7188 22.2188 21.7254 22.2188 20.5C22.2188 19.2746 21.2254 18.2812 20 18.2812C18.7746 18.2812 17.7812 19.2746 17.7812 20.5C17.7812 21.7254 18.7746 22.7188 20 22.7188Z" fill="#F6B40E" stroke="#85340A" stroke-width="0.1875"/>
<path d="M20.7578 20.0313C20.6016 20.0313 20.4609 20.0938 20.375 20.2266C20.5469 20.3828 20.9219 20.3984 21.1797 20.2109C21.1257 20.1527 21.0605 20.1061 20.988 20.0739C20.9155 20.0417 20.8372 20.0245 20.7578 20.0234V20.0313ZM20.7578 20.0625C20.9063 20.0625 21.0391 20.125 21.0625 20.1953C20.8906 20.3828 20.6172 20.3672 20.4453 20.2266C20.4789 20.1746 20.5253 20.1323 20.58 20.1035C20.6348 20.0748 20.696 20.0607 20.7578 20.0625Z" fill="#843511"/>
<path d="M20.7898 19.9219C20.5711 19.9219 20.5164 19.9687 20.4148 20.0547C20.3133 20.1406 20.2586 20.125 20.2429 20.1406C20.2273 20.1562 20.2429 20.2109 20.282 20.1953C20.3133 20.1719 20.3758 20.1406 20.4851 20.0547C20.5867 19.9766 20.6883 19.9766 20.7976 19.9766C21.0945 19.9766 21.2664 20.2266 21.3054 20.2109C21.3367 20.1953 21.1336 19.9219 20.7898 19.9219Z" fill="#85340A"/>
<path d="M21.4062 20.0234C21.0156 19.6797 20.5156 19.6328 20.2422 19.8828C20.1782 19.9679 20.1354 20.067 20.1172 20.1719C20.0781 20.3672 20.1406 20.5781 20.2969 20.7969C20.2734 20.7969 20.2422 20.8047 20.2188 20.8281C20.0938 20.5625 20.0391 20.2969 20.0859 20.0469C20.0982 19.9802 20.1165 19.9149 20.1406 19.8516C20.5156 19.5391 21.0312 19.5078 21.4062 20.0234Z" fill="#85340A"/>
<path d="M20.75 20.3516C20.8363 20.3516 20.9062 20.2816 20.9062 20.1953C20.9062 20.109 20.8363 20.0391 20.75 20.0391C20.6637 20.0391 20.5938 20.109 20.5938 20.1953C20.5938 20.2816 20.6637 20.3516 20.75 20.3516Z" fill="#85340A"/>
<path d="M21.1953 20.2969C20.9062 20.5156 20.6172 20.5 20.4453 20.3984C20.2734 20.2969 20.2734 20.2578 20.3125 20.2578C20.3437 20.2578 20.3828 20.2969 20.5156 20.3594C20.6562 20.4375 20.8594 20.4375 21.2031 20.2969H21.1953Z" fill="#85340A"/>
<path d="M19.6641 20.8125C19.6379 20.8162 19.6131 20.8265 19.592 20.8423C19.5709 20.8582 19.5541 20.8792 19.5433 20.9033C19.5325 20.9274 19.528 20.9539 19.5302 20.9802C19.5324 21.0066 19.5412 21.0319 19.5559 21.0539C19.5705 21.0759 19.5905 21.0938 19.614 21.1059C19.6375 21.1181 19.6636 21.1241 19.69 21.1234C19.7165 21.1227 19.7423 21.1153 19.765 21.1019C19.7878 21.0886 19.8068 21.0696 19.8203 21.0469C19.875 21.0938 19.9531 21.0938 20 21.0938H20.0234C20.0866 21.0958 20.149 21.0795 20.2031 21.0469C20.2166 21.0696 20.2356 21.0886 20.2584 21.1019C20.2812 21.1153 20.307 21.1227 20.3334 21.1234C20.3598 21.1241 20.386 21.1181 20.4094 21.1059C20.4329 21.0938 20.4529 21.0759 20.4676 21.0539C20.4822 21.0319 20.4911 21.0066 20.4933 20.9802C20.4955 20.9539 20.4909 20.9274 20.4801 20.9033C20.4693 20.8792 20.4526 20.8582 20.4315 20.8423C20.4103 20.8265 20.3855 20.8162 20.3594 20.8125C20.3984 20.8203 20.4297 20.8594 20.4297 20.9063C20.4297 20.9332 20.419 20.959 20.3999 20.9781C20.3809 20.9971 20.3551 21.0078 20.3281 21.0078C20.3012 21.0078 20.2754 20.9971 20.2563 20.9781C20.2373 20.959 20.2266 20.9332 20.2266 20.9063C20.2058 20.947 20.1747 20.9815 20.1362 21.0062C20.0978 21.0309 20.0535 21.0449 20.0078 21.0469C19.9635 21.0436 19.9208 21.0289 19.8839 21.0043C19.8469 20.9796 19.8169 20.9459 19.7969 20.9063C19.7969 20.9332 19.7862 20.959 19.7671 20.9781C19.7481 20.9971 19.7222 21.0078 19.6953 21.0078C19.6684 21.0078 19.6425 20.9971 19.6235 20.9781C19.6045 20.959 19.5938 20.9332 19.5938 20.9063C19.5938 20.8594 19.6172 20.8281 19.6563 20.8047L19.6641 20.8125ZM19.8203 21.2656C19.6563 21.2656 19.5859 21.4219 19.4297 21.5234C19.5234 21.4844 19.5859 21.4219 19.7109 21.3516C19.8281 21.2812 19.9297 21.3672 20 21.3672C20.0703 21.3672 20.1719 21.2812 20.2891 21.3516C20.4063 21.4219 20.4766 21.4844 20.5625 21.5234C20.4063 21.4141 20.3438 21.2656 20.1719 21.2656C20.1121 21.2701 20.0538 21.286 20 21.3125C19.9464 21.2857 19.888 21.2697 19.8281 21.2656H19.8203Z" fill="#85340A"/>
<path d="M19.7656 21.4688C19.67 21.4754 19.5755 21.4938 19.4844 21.5234C19.7969 21.4453 19.8594 21.5547 20 21.5547C20.1406 21.5547 20.2031 21.4531 20.5156 21.5156C20.1719 21.4219 20.1016 21.4844 20 21.4844C19.9297 21.4844 19.8828 21.4609 19.7656 21.4609V21.4688Z" fill="#85340A"/>
<path d="M19.5 21.5156H19.4375C19.7969 21.5547 19.6172 21.7578 20 21.7578C20.375 21.7578 20.2031 21.5547 20.5625 21.5234C20.1875 21.4844 20.3047 21.7109 20 21.7109C19.7109 21.7109 19.7969 21.5156 19.5 21.5156ZM20.3047 22.0703C20.3047 21.9888 20.2729 21.9104 20.2159 21.8521C20.159 21.7937 20.0815 21.7599 20 21.7578C19.9171 21.7578 19.8376 21.7907 19.779 21.8493C19.7204 21.9079 19.6875 21.9874 19.6875 22.0703C19.7052 22.0016 19.7458 21.9409 19.8026 21.8983C19.8594 21.8557 19.929 21.8337 20 21.8359C20.071 21.8337 20.1406 21.8557 20.1974 21.8983C20.2542 21.9409 20.2948 22.0016 20.3125 22.0703H20.3047Z" fill="#85340A"/>
<path d="M18.6172 20.0234C19.0078 19.6797 19.5078 19.6328 19.7812 19.8828C19.8452 19.9679 19.8881 20.067 19.9062 20.1719C19.9453 20.3672 19.8828 20.5781 19.7266 20.7969C19.75 20.7969 19.7812 20.8047 19.8047 20.8281C19.9297 20.5625 19.9844 20.2969 19.9375 20.0469C19.9253 19.9802 19.907 19.9149 19.8828 19.8516C19.5078 19.5391 18.9922 19.5078 18.6172 20.0234Z" fill="#85340A"/>
<path d="M19.2336 19.9219C19.4524 19.9219 19.5071 19.9687 19.6086 20.0547C19.7102 20.1406 19.7649 20.125 19.7805 20.1406C19.7961 20.1562 19.7805 20.2109 19.7414 20.1953C19.7102 20.1719 19.6477 20.1406 19.5383 20.0547C19.4367 19.9766 19.3352 19.9766 19.2258 19.9766C18.9289 19.9766 18.7571 20.2266 18.718 20.2109C18.6867 20.1953 18.8899 19.9219 19.2336 19.9219Z" fill="#85340A"/>
<path d="M19.2266 20.0313C19.0703 20.0313 18.9297 20.0938 18.8438 20.2266C19.0156 20.3828 19.3906 20.3984 19.6484 20.2109C19.5945 20.1527 19.5293 20.1061 19.4567 20.0739C19.3842 20.0417 19.3059 20.0245 19.2266 20.0234V20.0313ZM19.2266 20.0625C19.375 20.0625 19.5078 20.125 19.5313 20.1953C19.3594 20.3828 19.0859 20.3672 18.9141 20.2266C18.9476 20.1746 18.994 20.1323 19.0488 20.1035C19.1035 20.0748 19.1648 20.0607 19.2266 20.0625Z" fill="#843511"/>
<path d="M19.2422 20.3516C19.3285 20.3516 19.3984 20.2816 19.3984 20.1953C19.3984 20.109 19.3285 20.0391 19.2422 20.0391C19.1559 20.0391 19.0859 20.109 19.0859 20.1953C19.0859 20.2816 19.1559 20.3516 19.2422 20.3516Z" fill="#85340A"/>
<path d="M18.8281 20.2969C19.1172 20.5156 19.4063 20.5 19.5781 20.3984C19.75 20.2969 19.75 20.2578 19.7109 20.2578C19.6797 20.2578 19.6406 20.2969 19.5078 20.3594C19.3672 20.4375 19.1641 20.4375 18.8203 20.2969H18.8281Z" fill="#85340A"/>
</g>
<defs>
<clipPath id="clip0_71_850">
<rect y="0.5" width="40" height="40" rx="20" fill="white"/>
</clipPath>
</defs>
</svg>
