<svg width="40" height="40" viewBox="0 0 40 40" fill="none" xmlns="http://www.w3.org/2000/svg">
<g clip-path="url(#clip0_57_820)">
<path d="M20 0C8.9712 0 0 8.97189 0 19.9996C0 31.0272 8.9712 40 20 40C31.0279 40 40 31.0272 40 19.9996C40 8.97189 31.0279 0 20 0Z" fill="#004170"/>
<path d="M19.9723 1.43555C15.0122 1.43555 10.3485 3.36698 6.84097 6.87442C3.33345 10.3819 1.40198 15.0455 1.40198 20.0055C1.40198 24.9655 3.33345 29.6282 6.84097 33.1366C10.3485 36.644 15.0122 38.5754 19.9723 38.5754C24.9324 38.5754 29.5962 36.644 33.1037 33.1366C36.6112 29.6282 38.5427 24.9655 38.5427 20.0055C38.5427 15.0455 36.6112 10.3819 33.1037 6.87442C29.5962 3.36698 24.9324 1.43555 19.9723 1.43555ZM19.9723 2.17108C29.8228 2.17108 37.8071 10.1561 37.8071 20.0055C37.8071 29.8549 29.8228 37.8399 19.9723 37.8399C10.1227 37.8399 2.13753 29.8549 2.13753 20.0055C2.13753 10.1561 10.1227 2.17108 19.9723 2.17108Z" fill="white"/>
<path d="M14.6246 7.15691L14.7031 5.19285L15.997 6.67626C15.5286 6.81296 15.0709 6.97347 14.6246 7.15691ZM14.8998 4.18127C14.5735 4.28622 14.2507 4.39999 13.9332 4.52435L13.5901 9.73215C13.8988 9.54342 14.2163 9.36791 14.5417 9.20652L14.5911 7.99298C15.2191 7.71606 15.8735 7.48675 16.5491 7.30948L17.349 8.22757C17.7009 8.15173 18.0581 8.08999 18.4197 8.0459L14.8998 4.18127ZM29.0177 7.39794C29.7057 7.23655 30.9695 8.49242 31.2111 9.3426C31.4122 9.18914 31.8594 8.86106 31.8594 8.86106C31.3249 7.34061 29.1976 5.81928 28.1869 6.77177C27.5872 7.33797 27.9276 8.2102 28.4506 8.76141L28.9586 9.29586C29.4772 9.84177 29.9297 10.385 29.5134 10.7281C29.0698 11.095 27.8289 10.176 27.0827 8.59825L26.4151 9.10183C26.5747 9.51722 26.9346 10.1187 27.4179 10.6276C27.9656 11.2044 28.5626 11.5801 29.0971 11.685C29.5169 11.7679 29.9358 11.7053 30.2119 11.4487C30.9007 10.8101 30.6502 9.87882 29.5681 8.73936L29.1192 8.26753C28.6209 7.74278 28.8246 7.4438 29.0177 7.39794ZM8.84337 8.73248L10.0949 7.35931C10.3762 7.05064 10.8569 7.02771 11.1664 7.30992C11.4751 7.59126 11.498 8.07191 11.2158 8.38059L9.96433 9.75464L8.84337 8.73248ZM11.6048 11.2495L10.5641 10.3014L11.8535 8.88153C12.4373 8.24213 12.4373 7.21203 11.797 6.62907C11.1567 6.04523 10.1143 6.12549 9.53129 6.76577L7.61658 8.87183L10.9512 11.9101C11.1603 11.6808 11.3799 11.4621 11.6048 11.2495ZM19.9113 4.23172H21.6188C22.0368 4.23172 22.3773 4.57215 22.3773 4.99018C22.3773 5.40822 22.0368 5.74864 21.6188 5.74864H19.9113V4.23172ZM19.9113 7.95082V6.5609H21.0746L22.0783 8.14749C22.476 8.21981 22.8667 8.31065 23.2495 8.4209L22.0465 6.50269C22.7362 6.31837 23.3051 5.71072 23.3051 4.99018C23.3051 4.12412 22.4849 3.41858 21.6188 3.41858H18.9826V7.98963C19.2887 7.96582 19.5974 7.95083 19.9104 7.95083L19.9113 7.95082ZM24.9968 9.07273L26.7616 4.82799C26.4723 4.69835 26.1786 4.57752 25.8814 4.46464L24.1175 8.70673C24.4165 8.81697 24.7093 8.93956 24.9968 9.07273Z" fill="white"/>
<path d="M23.5269 19.8736C21.9297 17.0717 20.9851 13.7636 20.9145 9.89456C20.6085 9.86722 20.2989 9.85046 19.9858 9.85046C19.6701 9.85046 19.3588 9.86722 19.0501 9.89544C18.9795 13.7636 18.035 17.0717 16.4378 19.8736H23.5269ZM23.761 20.272H16.2035C14.9511 22.3498 13.3337 24.1428 11.4427 25.6685C12.2603 26.912 13.3407 27.9668 14.6063 28.7526C14.5596 28.4828 14.534 28.2067 14.534 27.9245C14.534 25.1094 16.9743 22.8269 19.9853 22.8269C22.9963 22.8269 25.4367 25.1094 25.4367 27.9245C25.4367 28.2067 25.4111 28.4828 25.3643 28.7526C26.6282 27.9677 27.7086 26.9147 28.5252 25.672C26.6326 24.1454 25.0142 22.3516 23.761 20.272Z" fill="#E30613"/>
<path d="M21.428 9.95432C26.3872 10.6555 30.2016 14.9152 30.2016 20.0674C30.2016 21.7175 29.8083 23.275 29.1133 24.6552C24.6118 21.2783 21.8769 16.5194 21.428 9.95432ZM25.3641 28.7527C25.4109 28.4828 25.4365 28.2068 25.4365 27.9245C25.4365 25.1094 22.9961 22.827 19.9851 22.827C16.9741 22.827 14.5338 25.1094 14.5338 27.9245C14.5338 28.2068 14.5594 28.4828 14.607 28.7527C13.3405 27.9669 12.2601 26.9121 11.4434 25.6686C13.3334 24.1428 14.9509 22.3499 16.2033 20.272H23.7607C25.014 22.3516 26.6324 24.1455 28.525 25.6721C27.7084 26.9147 26.6289 27.9678 25.3641 28.7527ZM23.6514 29.6029C22.5128 30.0412 21.2781 30.2837 19.9851 30.2837C18.6931 30.2837 17.4583 30.0412 16.3197 29.6029C15.9043 28.9723 15.6636 28.2279 15.6636 27.4289C15.6636 25.1623 17.5986 23.3244 19.9851 23.3244C22.3726 23.3244 24.3076 25.1623 24.3076 27.4289C24.3076 28.2279 24.0668 28.9723 23.6514 29.6029ZM9.7686 20.0674C9.7686 14.9143 13.5848 10.6546 18.5449 9.95432C18.096 16.5194 15.3602 21.2792 10.8578 24.6561C10.1628 23.2759 9.7686 21.7184 9.7686 20.0674ZM19.9851 9.85113C20.2991 9.85113 20.6078 9.86701 20.9147 9.89523C20.9844 13.7634 21.9298 17.0715 23.527 19.8734H16.437C18.0351 17.0715 18.9797 13.7634 19.0503 9.89523C19.3581 9.86789 19.6703 9.85113 19.9851 9.85113ZM19.9851 9.1156C13.9464 9.1156 9.03394 14.0288 9.03394 20.0674C9.03394 26.106 13.9464 31.0184 19.9851 31.0184C26.0238 31.0184 30.9372 26.106 30.9372 20.0674C30.9372 14.0288 26.0238 9.1156 19.9851 9.1156Z" fill="white"/>
<path d="M21.6493 26.6895C21.1201 26.6895 20.6113 27.1155 20.3167 27.8934C20.3114 27.9039 20.3079 27.9171 20.3079 27.9304C20.307 27.9798 20.3467 28.0204 20.3961 28.0212C20.4313 28.0212 20.4613 28.0018 20.4772 27.9727C20.4772 27.9707 20.4781 27.9702 20.4781 27.9682C20.4789 27.9682 20.4789 27.9672 20.4789 27.9662C20.7047 27.4785 21.1245 27.2492 21.3626 27.2492C21.4967 27.2492 21.6052 27.3577 21.6052 27.4917C21.6052 27.6258 21.4967 27.7342 21.3626 27.7342C21.3503 27.7342 21.3309 27.7327 21.3194 27.7307C21.3088 27.7292 21.2833 27.7228 21.27 27.7519C21.2603 27.7757 21.24 27.8921 21.3441 28.0112C21.405 28.08 21.5302 28.1373 21.6493 28.1373C22.0497 28.1373 22.3733 27.8127 22.3733 27.4132C22.3733 27.0128 22.0497 26.6892 21.6493 26.6892L21.6493 26.6895ZM19.6304 27.893C19.335 27.1151 18.8261 26.6892 18.2978 26.6892C17.8974 26.6892 17.5737 27.0137 17.5737 27.4132C17.5737 27.8127 17.8974 28.1373 18.2978 28.1373C18.4169 28.1373 18.5421 28.08 18.603 28.0112C18.707 27.8921 18.6868 27.7757 18.6762 27.7528C18.6638 27.7228 18.6382 27.729 18.6277 27.7307C18.6162 27.7328 18.5968 27.7343 18.5844 27.7343C18.4504 27.7343 18.3419 27.6258 18.3419 27.4917C18.3419 27.3586 18.4504 27.2501 18.5844 27.2501C18.8217 27.2501 19.2424 27.4785 19.4673 27.9671C19.4673 27.9681 19.4681 27.9681 19.4681 27.9691C19.469 27.9701 19.4699 27.9711 19.4699 27.9726C19.4849 28.0017 19.5158 28.0221 19.5502 28.0211C19.6004 28.0201 19.6401 27.9797 19.6392 27.9303C19.6392 27.9171 19.6357 27.9047 19.6304 27.8933L19.6304 27.893ZM20.6964 26.3537C20.6964 25.9365 20.1504 24.6339 19.9855 24.6339C19.9732 24.6339 19.9599 24.6401 19.9449 24.6524C19.7456 24.8129 19.2738 25.9656 19.2738 26.3537C19.2738 26.665 19.9026 27.4852 19.9026 27.9314C19.9026 27.9773 19.9397 28.0143 19.9855 28.0143C20.0305 28.0143 20.0684 27.9773 20.0684 27.9314C20.0684 27.9304 20.0675 27.9294 20.0675 27.9289C20.0701 27.4827 20.6963 26.6642 20.6963 26.3538L20.6964 26.3537ZM20.3484 28.6467C20.2294 28.5735 20.1385 28.4571 20.1059 28.3177C20.0909 28.2648 20.0433 28.2251 19.9851 28.2251C19.9277 28.2251 19.8792 28.2648 19.8642 28.3177C19.8316 28.4571 19.7408 28.5735 19.6217 28.6467C19.5997 28.6599 19.5979 28.6696 19.6067 28.6864C19.679 28.8301 19.8016 29.0083 19.9516 29.1291C19.9727 29.1458 19.9807 29.1467 19.9851 29.1467C19.9904 29.1467 19.9974 29.1457 20.0186 29.1291C20.1694 29.0083 20.2911 28.8301 20.3634 28.6864C20.3723 28.6696 20.3705 28.6599 20.3484 28.6467" fill="#CEAB5D"/>
<path d="M17.742 34.3929L17.1316 34.2589L17.1872 34.0119L17.7966 34.1495L17.742 34.3929ZM10.2135 29.4867C10.0733 28.9637 9.54325 28.4513 9.14285 28.4513C9.05289 28.4513 8.97351 28.4769 8.90472 28.5281C8.82358 28.588 8.77596 28.6683 8.76185 28.7653C8.73892 28.9188 8.80065 29.1119 8.92765 29.2804L9.11022 29.5246C9.25133 29.7134 9.38803 29.9109 9.35893 30.067C9.34834 30.1297 9.31306 30.1799 9.25397 30.2178C9.22222 30.239 9.18518 30.2487 9.14373 30.2487C8.8959 30.2487 8.47697 29.8077 8.2706 29.1745L8.26621 29.1631L8.08629 29.3324L8.08276 29.3359L8.08362 29.3395C8.12419 29.4982 8.23179 29.754 8.41259 29.9965C8.60309 30.2505 8.82005 30.4269 9.02378 30.4921C9.08993 30.5133 9.15431 30.5239 9.21605 30.5239C9.30513 30.5239 9.3845 30.501 9.44447 30.4578C9.54325 30.3846 9.60234 30.2928 9.61822 30.1835C9.64909 29.9815 9.54149 29.7143 9.29983 29.3915L9.13844 29.1754C9.00967 29.0035 9.01496 28.8914 9.0423 28.8279C9.067 28.7724 9.11815 28.7336 9.17636 28.7265C9.18518 28.7255 9.19488 28.7255 9.20458 28.7255C9.49827 28.7255 9.91455 29.2132 10.023 29.5916L10.0257 29.6004L10.0345 29.5959C10.0953 29.5606 10.1659 29.52 10.21 29.4953L10.2153 29.4918L10.2135 29.4867ZM26.8094 31.6949L26.5898 31.8069L26.5527 33.0213L25.5482 32.3378L25.3286 32.4507L26.0765 33.9915L26.3005 33.8918L25.781 32.7964L25.7854 32.7939L26.7811 33.4686L26.8191 32.2674L26.8234 32.2649L27.4064 33.3303L27.6198 33.2094L26.8094 31.6949ZM29.7108 29.3929L31.3601 29.5067L31.3627 29.5031L30.3952 28.6327L30.5601 28.4492L31.8337 29.5948L31.6855 29.7783L30.0195 29.6645L30.0159 29.6681L30.9958 30.55L30.8229 30.7264L29.5459 29.5763L29.7108 29.3929ZM29.0316 30.0639L30.2011 31.3225L30.0168 31.4856L28.8508 30.2315L29.0316 30.0639ZM28.0219 31.2475L28.148 31.8895L28.5872 31.5773L28.0219 31.2475ZM29.5662 31.8666L29.351 32.0377L28.8209 31.7132L28.1974 32.1568L28.3182 32.7776L28.0986 32.9179L27.737 31.0746L27.9601 30.9168L29.5662 31.8666ZM23.5955 33.3092L23.7411 33.7925L24.4713 33.5729C24.6486 33.5191 24.7218 33.3974 24.6733 33.2378C24.6177 33.0517 24.4616 33.0481 24.3258 33.0896L23.5955 33.3092ZM24.2552 32.8532C24.5172 32.7739 24.8091 32.8321 24.9097 33.1663C25.0173 33.5226 24.8126 33.7061 24.6777 33.759L25.213 34.3358L24.9538 34.4284L24.4219 33.8445L23.8125 34.028L24.018 34.7168L23.7825 34.7838L23.2886 33.1443L24.2552 32.8532ZM22.6988 33.2851L22.7341 33.5294L21.5893 33.6934L21.6537 34.1388L22.2305 34.0559L22.2657 34.3002L21.6889 34.3831L21.763 34.9008L22.9501 34.7306L22.9845 34.974L21.554 35.1795L21.3106 33.4835L22.6988 33.2851ZM20.0303 34.3209L20.8152 34.3332L20.8081 34.7883C20.8029 35.0961 20.4615 35.2963 20.032 35.2892C19.5761 35.2813 19.1042 34.9611 19.1139 34.3791C19.121 33.8905 19.5179 33.4954 20.0664 33.5042C20.4748 33.5103 20.6864 33.7282 20.7843 33.8261L20.6106 33.999C20.5277 33.9152 20.398 33.7564 20.0876 33.7511C19.6325 33.7432 19.3653 34.036 19.36 34.3941C19.3538 34.7301 19.614 35.0352 20.0479 35.0432C20.3451 35.0477 20.5594 34.9135 20.5612 34.768L20.5647 34.5766L20.0259 34.5678L20.0303 34.3209ZM16.2655 33.0418L16.1843 33.2746L15.6172 33.0771L15.1295 34.4749L14.8967 34.3938L15.3835 32.9959L14.8164 32.7984L14.8976 32.5655L16.2655 33.0418ZM13.3038 31.7751L13.6001 33.4005L13.6045 33.4025L14.2095 32.2507L14.4283 32.3653L13.6319 33.8831L13.4158 33.7852L13.1168 32.1404L13.1133 32.1384L12.4977 33.3079L12.286 33.1844L13.0859 31.6604L13.3038 31.7751ZM12.5519 31.2965L11.5924 32.7517L11.386 32.6168L12.3456 31.1616L12.5519 31.2965ZM11.0816 30.574L10.4907 30.8544L10.9008 31.2028L11.0816 30.574ZM10.8603 32.2399L10.6407 32.075L10.8268 31.463L10.2438 30.9682L9.66435 31.2434L9.46767 31.0634L11.1787 30.2556L11.3877 30.4329L10.8603 32.2399Z" fill="white"/>
</g>
<defs>
<clipPath id="clip0_57_820">
<rect width="40" height="40" rx="20" fill="white"/>
</clipPath>
</defs>
</svg>
