<svg width="20" height="21" viewBox="0 0 20 21" fill="none" xmlns="http://www.w3.org/2000/svg">
<rect x="1.66666" y="2.16669" width="16.6667" height="16.6667" rx="3" fill="#56B694"/>
<rect x="1.66666" y="2.16669" width="16.6667" height="16.6667" rx="3" fill="#56B694"/>
<path fill-rule="evenodd" clip-rule="evenodd" d="M6.74796 2.16669H4.66666C3.0098 2.16669 1.66666 3.50983 1.66666 5.16669V15.8334C1.66666 17.4902 3.0098 18.8334 4.66666 18.8334H6.74796H13.252H15.3333C16.9902 18.8334 18.3333 17.4902 18.3333 15.8334V5.16669C18.3333 3.50983 16.9902 2.16669 15.3333 2.16669H13.252H6.74796ZM13.1733 17.9187H15.4187C16.5233 17.9187 17.4187 17.0233 17.4187 15.9187V10.7033L12.1202 10.7033C11.8231 11.5893 10.9861 12.2277 9.99999 12.2277C9.01391 12.2277 8.17693 11.5893 7.87977 10.7033H2.58129V15.9187C2.58129 17.0233 3.47672 17.9187 4.58129 17.9187H6.82672C6.86747 17.7369 6.92387 17.5585 6.9955 17.3856C7.15893 16.991 7.39848 16.6325 7.70046 16.3306C8.00243 16.0286 8.36094 15.789 8.75549 15.6256C9.15005 15.4622 9.57293 15.3781 9.99999 15.3781C10.4271 15.3781 10.8499 15.4622 11.2445 15.6256C11.639 15.789 11.9975 16.0286 12.2995 16.3306C12.6015 16.6325 12.841 16.991 13.0045 17.3856C13.0761 17.5585 13.1325 17.7369 13.1733 17.9187ZM2.58129 9.78864V5.08132C2.58129 3.97675 3.47672 3.08132 4.58129 3.08132H6.82672C6.86747 3.26311 6.92387 3.4415 6.9955 3.61444C7.15893 4.00899 7.39848 4.36749 7.70046 4.66947C8.00243 4.97145 8.36094 5.211 8.75549 5.37443C9.15005 5.53786 9.57293 5.62197 9.99999 5.62197C10.4271 5.62197 10.8499 5.53786 11.2445 5.37443C11.639 5.211 11.9975 4.97145 12.2995 4.66947C12.6015 4.36749 12.841 4.00899 13.0045 3.61444C13.0761 3.4415 13.1325 3.26311 13.1733 3.08132H15.4187C16.5233 3.08132 17.4187 3.97675 17.4187 5.08132V9.78864L12.2266 9.78864C12.124 8.64911 11.1663 7.75612 9.99999 7.75612C8.83372 7.75612 7.87602 8.64911 7.77333 9.78864H2.58129ZM8.67885 9.99189C8.67885 10.7215 9.27035 11.313 9.99999 11.313C10.7296 11.313 11.3211 10.7215 11.3211 9.99189C11.3211 9.26225 10.7296 8.67075 9.99999 8.67075C9.27035 8.67075 8.67885 9.26225 8.67885 9.99189ZM12.2265 17.9187C12.2067 17.8569 12.1844 17.7958 12.1595 17.7356C12.042 17.452 11.8698 17.1944 11.6528 16.9773C11.4357 16.7603 11.1781 16.5881 10.8945 16.4706C10.6109 16.3532 10.3069 16.2927 9.99999 16.2927C9.69304 16.2927 9.38909 16.3532 9.10551 16.4706C8.82192 16.5881 8.56425 16.7603 8.3472 16.9773C8.13015 17.1944 7.95798 17.452 7.84052 17.7356C7.81559 17.7958 7.79323 17.8569 7.77348 17.9187H12.2265ZM7.77348 3.08132C7.79323 3.14316 7.81559 3.20425 7.84052 3.26442C7.95798 3.54801 8.13015 3.80568 8.3472 4.02273C8.56425 4.23978 8.82192 4.41195 9.10551 4.52941C9.38909 4.64688 9.69304 4.70734 9.99999 4.70734C10.3069 4.70734 10.6109 4.64688 10.8945 4.52941C11.1781 4.41195 11.4357 4.23978 11.6528 4.02273C11.8698 3.80568 12.042 3.54801 12.1595 3.26442C12.1844 3.20425 12.2067 3.14316 12.2265 3.08132L7.77348 3.08132Z" fill="#2E3245"/>
</svg>
