<svg width="20" height="21" viewBox="0 0 20 21" fill="none" xmlns="http://www.w3.org/2000/svg">
<path fill-rule="evenodd" clip-rule="evenodd" d="M10.0157 20.5L10 20.5V20.5005C8.30407 20.4999 6.5437 20.3993 4.12598 18.9524L4.59843 6.47049L3.59055 8.08314C3.59055 8.08314 1.07087 8.16406 0 5.68058C0 5.68058 1.95276 1.82607 2.45669 1.53579C3.34626 1.02339 4.99044 0.679241 6.8935 0.503418C7.06386 1.13363 8.38969 1.62411 10 1.62411V1.62358C11.6128 1.62358 12.9402 1.1316 13.1073 0.5C15.0232 0.674906 16.6802 1.01997 17.5748 1.53526C18.0787 1.82554 20 5.68005 20 5.68005C19.0677 7.93672 16.9188 8.07804 16.4862 8.1065C16.4365 8.10976 16.4094 8.11154 16.4094 8.11486L15.4016 6.50222L15.874 18.9841C13.4488 20.4032 11.7165 20.5 10.0157 20.5Z" fill="#4D5F7A"/>
</svg>
