<svg width="120" height="120" viewBox="0 0 120 120" fill="none" xmlns="http://www.w3.org/2000/svg">
<g clip-path="url(#clip0_85_3739)">
<path d="M85.6097 16.0586H67.1689C64.3569 16.0586 62.1396 13.7873 62.1396 11.0293C62.1396 8.21722 64.4109 6 67.1689 6H85.6097C88.4217 6 90.639 8.27129 90.639 11.0293C90.693 13.7873 88.4217 16.0586 85.6097 16.0586Z" fill="#F6000B"/>
<path d="M52.8326 16.0586H46.3973C43.5852 16.0586 41.368 13.7873 41.368 11.0293C41.368 8.21722 43.6393 6 46.3973 6H52.8326C55.6447 6 57.8619 8.27129 57.8619 11.0293C57.8619 13.7873 55.5906 16.0586 52.8326 16.0586Z" fill="#F6000B"/>
<path d="M15.6274 38.2847H11.4633C8.65126 38.2847 6.43405 36.0134 6.43405 33.2554C6.43405 30.4433 8.70534 28.2261 11.4633 28.2261H15.6274C18.4395 28.2261 20.6567 30.4974 20.6567 33.2554C20.6567 36.0674 18.3854 38.2847 15.6274 38.2847Z" fill="#009B00"/>
<path d="M12.3818 55.1567H5.1353C2.32323 55.1567 0.106018 52.8854 0.106018 50.1274C0.106018 47.3154 2.3773 45.0981 5.1353 45.0981H12.3818C15.1939 45.0981 17.4111 47.3694 17.4111 50.1274C17.4111 52.8854 15.1398 55.1567 12.3818 55.1567Z" fill="#EAC300"/>
<path d="M52.8304 31.2541H35.7957C32.9836 31.2541 30.7664 28.9828 30.7664 26.2248C30.7664 23.4128 33.0377 21.1956 35.7957 21.1956H52.8304C55.6424 21.1956 57.8597 23.4668 57.8597 26.2248C57.8597 28.9828 55.5884 31.2541 52.8304 31.2541Z" fill="white"/>
<path d="M52.838 47.0994H28.7731C25.961 47.0994 23.7438 44.8281 23.7438 42.0701C23.7438 39.258 26.0151 37.0408 28.7731 37.0408H52.7839C55.596 37.0408 57.8132 39.3121 57.8132 42.0701C57.8673 44.8281 55.596 47.0994 52.838 47.0994Z" fill="#0E41E8"/>
<path d="M52.8358 63.8098H25.7425C22.9304 63.8098 20.7132 61.5385 20.7132 58.7805C20.7132 55.9684 22.9845 53.7512 25.7425 53.7512H52.8358C55.6479 53.7512 57.8651 56.0225 57.8651 58.7805C57.8651 61.5385 55.5938 63.8098 52.8358 63.8098Z" fill="#F6000B"/>
<path d="M104.97 31.2541H67.1689C64.3569 31.2541 62.1396 28.9828 62.1396 26.2248C62.1396 23.4128 64.4109 21.1956 67.1689 21.1956H104.97C107.782 21.1956 109.999 23.4668 109.999 26.2248C110.053 28.9828 107.782 31.2541 104.97 31.2541Z" fill="#EB9600"/>
<path d="M112.267 47.0994H67.2201C64.4081 47.0994 62.1908 44.8281 62.1908 42.0701C62.1908 39.258 64.4621 37.0408 67.2201 37.0408H112.267C115.08 37.0408 117.297 39.3121 117.297 42.0701C117.297 44.8281 115.025 47.0994 112.267 47.0994Z" fill="#F6000B"/>
<path d="M114.971 63.8098H67.2201C64.4081 63.8098 62.1908 61.5385 62.1908 58.7805C62.1908 55.9684 64.4621 53.7512 67.2201 53.7512H114.971C117.783 53.7512 120.001 56.0225 120.001 58.7805C120.001 61.5385 117.783 63.8098 114.971 63.8098Z" fill="#009B00"/>
<path d="M23.7363 22.0615C26.484 22.0615 28.7115 19.834 28.7115 17.0863C28.7115 14.3386 26.484 12.1111 23.7363 12.1111C20.9886 12.1111 18.7611 14.3386 18.7611 17.0863C18.7611 19.834 20.9886 22.0615 23.7363 22.0615Z" fill="#0E41E8"/>
<path d="M85.5512 101.448H67.1104C64.2984 101.448 62.0811 103.72 62.0811 106.478C62.0811 109.29 64.3524 111.507 67.1104 111.507H85.5512C88.3633 111.507 90.5805 109.236 90.5805 106.478C90.5805 103.665 88.3092 101.448 85.5512 101.448Z" fill="white"/>
<path d="M52.7265 101.448H46.2912C43.4791 101.448 41.2619 103.72 41.2619 106.478C41.2619 109.29 43.5332 111.507 46.2912 111.507H52.7265C55.5386 111.507 57.7558 109.236 57.7558 106.478C57.7558 103.665 55.4845 101.448 52.7265 101.448Z" fill="#F6000B"/>
<path d="M15.5214 79.1677H11.3573C8.54524 79.1677 6.32803 81.439 6.32803 84.197C6.32803 87.0091 8.59932 89.2263 11.3573 89.2263H15.5214C18.3334 89.2263 20.5506 86.955 20.5506 84.197C20.5506 81.439 18.2794 79.1677 15.5214 79.1677Z" fill="white"/>
<path d="M12.2758 62.3499H5.0293C2.21722 62.3499 0 64.6211 0 67.3791C0 70.1912 2.2713 72.4084 5.0293 72.4084H12.2758C15.0879 72.4084 17.3051 70.1371 17.3051 67.3791C17.3051 64.6211 15.0338 62.3499 12.2758 62.3499Z" fill="#3BDBFC"/>
<path d="M52.7207 86.2522H35.686C32.8739 86.2522 30.6567 88.5235 30.6567 91.2815C30.6567 94.0936 32.928 96.3108 35.686 96.3108H52.7207C55.5328 96.3108 57.75 94.0395 57.75 91.2815C57.75 88.5235 55.4787 86.2522 52.7207 86.2522Z" fill="#009B00"/>
<path d="M52.7254 70.4072H28.7146C25.9025 70.4072 23.6853 72.6785 23.6853 75.4365C23.6853 78.2486 25.9566 80.4658 28.7146 80.4658H52.7254C55.5375 80.4658 57.7547 78.1945 57.7547 75.4365C57.7547 72.6244 55.4834 70.4072 52.7254 70.4072Z" fill="white"/>
<path d="M104.911 86.2522H67.1104C64.2984 86.2522 62.0811 88.5235 62.0811 91.2815C62.0811 94.0936 64.3524 96.3108 67.1104 96.3108H104.911C107.723 96.3108 109.941 94.0395 109.941 91.2815C109.941 88.5235 107.669 86.2522 104.911 86.2522Z" fill="#0E41E8"/>
<path d="M112.158 70.4072H67.1104C64.2984 70.4072 62.0811 72.6785 62.0811 75.4365C62.0811 78.2486 64.3524 80.4658 67.1104 80.4658H112.158C114.97 80.4658 117.187 78.1945 117.187 75.4365C117.187 72.6244 114.916 70.4072 112.158 70.4072Z" fill="#EAC300"/>
<path d="M23.6303 105.342C26.378 105.342 28.6055 103.114 28.6055 100.367C28.6055 97.6188 26.378 95.3914 23.6303 95.3914C20.8825 95.3914 18.6551 97.6188 18.6551 100.367C18.6551 103.114 20.8825 105.342 23.6303 105.342Z" fill="#3BDBFC"/>
</g>
<defs>
<clipPath id="clip0_85_3739">
<rect width="120" height="120" fill="white"/>
</clipPath>
</defs>
</svg>
