<svg width="21" height="20" viewBox="0 0 21 20" fill="none" xmlns="http://www.w3.org/2000/svg">
<path d="M6.99999 1.66675H14C16.6667 1.66675 18.8333 3.83341 18.8333 6.50008V13.5001C18.8333 14.782 18.3241 16.0113 17.4177 16.9178C16.5112 17.8242 15.2819 18.3334 14 18.3334H6.99999C4.33332 18.3334 2.16666 16.1667 2.16666 13.5001V6.50008C2.16666 5.2182 2.67588 3.98882 3.58231 3.0824C4.48873 2.17597 5.71811 1.66675 6.99999 1.66675ZM6.83332 3.33341C6.03767 3.33341 5.27461 3.64949 4.712 4.21209C4.14939 4.7747 3.83332 5.53777 3.83332 6.33341V13.6667C3.83332 15.3251 5.17499 16.6667 6.83332 16.6667H14.1667C14.9623 16.6667 15.7254 16.3507 16.288 15.7881C16.8506 15.2255 17.1667 14.4624 17.1667 13.6667V6.33341C17.1667 4.67508 15.825 3.33341 14.1667 3.33341H6.83332ZM14.875 4.58341C15.1513 4.58341 15.4162 4.69316 15.6116 4.88851C15.8069 5.08386 15.9167 5.34881 15.9167 5.62508C15.9167 5.90135 15.8069 6.1663 15.6116 6.36165C15.4162 6.557 15.1513 6.66675 14.875 6.66675C14.5987 6.66675 14.3338 6.557 14.1384 6.36165C13.9431 6.1663 13.8333 5.90135 13.8333 5.62508C13.8333 5.34881 13.9431 5.08386 14.1384 4.88851C14.3338 4.69316 14.5987 4.58341 14.875 4.58341ZM10.5 5.83341C11.6051 5.83341 12.6649 6.2724 13.4463 7.0538C14.2277 7.8352 14.6667 8.89501 14.6667 10.0001C14.6667 11.1052 14.2277 12.165 13.4463 12.9464C12.6649 13.7278 11.6051 14.1667 10.5 14.1667C9.39492 14.1667 8.33511 13.7278 7.55371 12.9464C6.77231 12.165 6.33332 11.1052 6.33332 10.0001C6.33332 8.89501 6.77231 7.8352 7.55371 7.0538C8.33511 6.2724 9.39492 5.83341 10.5 5.83341ZM10.5 7.50008C9.83695 7.50008 9.20106 7.76347 8.73222 8.23231C8.26338 8.70115 7.99999 9.33704 7.99999 10.0001C7.99999 10.6631 8.26338 11.299 8.73222 11.7678C9.20106 12.2367 9.83695 12.5001 10.5 12.5001C11.163 12.5001 11.7989 12.2367 12.2678 11.7678C12.7366 11.299 13 10.6631 13 10.0001C13 9.33704 12.7366 8.70115 12.2678 8.23231C11.7989 7.76347 11.163 7.50008 10.5 7.50008Z" fill="white"/>
</svg>
