<svg width="253" height="284" viewBox="0 0 253 284" fill="none" xmlns="http://www.w3.org/2000/svg">
<path d="M56.8659 67.464H41.7154C31.484 67.464 23.4169 59.2001 23.4169 49.1654C23.4169 38.934 31.6807 30.8669 41.7154 30.8669H56.8659C67.0973 30.8669 75.1644 39.1307 75.1644 49.1654C75.1644 59.3969 66.9006 67.464 56.8659 67.464Z" fill="#009B00"/>
<path d="M45.0578 128.851H18.6921C8.46064 128.851 0.393555 120.588 0.393555 110.553C0.393555 100.321 8.6574 92.2543 18.6921 92.2543H45.0578C55.2893 92.2543 63.3564 100.518 63.3564 110.553C63.3564 120.588 55.0925 128.851 45.0578 128.851Z" fill="#EAC300"/>
<path d="M192.251 41.8841H130.272C120.041 41.8841 111.974 33.6202 111.974 23.5855C111.974 13.3541 120.237 5.28699 130.272 5.28699H192.251C202.483 5.28699 210.55 13.5508 210.55 23.5855C210.55 33.6202 202.286 41.8841 192.251 41.8841Z" fill="white"/>
<path d="M192.248 99.5355H104.69C94.4587 99.5355 86.3916 91.2717 86.3916 81.237C86.3916 71.0055 94.6554 62.9384 104.69 62.9384H192.051C202.282 62.9384 210.35 71.2023 210.35 81.237C210.546 91.2717 202.283 99.5355 192.248 99.5355Z" fill="#0E41E8"/>
<path d="M192.223 160.336H93.6472C83.4157 160.336 75.3486 152.073 75.3486 142.038C75.3486 131.806 83.6125 123.739 93.6472 123.739H192.223C202.455 123.739 210.522 132.003 210.522 142.038C210.522 152.073 202.258 160.336 192.223 160.336Z" fill="#F6000B"/>
<path d="M381.906 41.8841H244.372C234.14 41.8841 226.073 33.6202 226.073 23.5855C226.073 13.3541 234.337 5.28699 244.372 5.28699H381.906C392.138 5.28699 400.205 13.5508 400.205 23.5855C400.402 33.6202 392.138 41.8841 381.906 41.8841Z" fill="#EB9600"/>
<path d="M408.485 99.5355H244.585C234.353 99.5355 226.286 91.2717 226.286 81.237C226.286 71.0055 234.55 62.9384 244.585 62.9384H408.485C418.716 62.9384 426.784 71.2023 426.784 81.237C426.784 91.2717 418.52 99.5355 408.485 99.5355Z" fill="#F6000B"/>
<path d="M418.323 160.336H244.585C234.353 160.336 226.286 152.073 226.286 142.038C226.286 131.806 234.55 123.739 244.585 123.739H418.323C428.554 123.739 436.621 132.003 436.621 142.038C436.621 152.073 428.554 160.336 418.323 160.336Z" fill="#009B00"/>
<path d="M86.3744 8.43596C96.3718 8.43596 104.476 0.331474 104.476 -9.66588C104.476 -19.6632 96.3718 -27.7677 86.3744 -27.7677C76.3771 -27.7677 68.2726 -19.6632 68.2726 -9.66588C68.2726 0.331474 76.3771 8.43596 86.3744 8.43596Z" fill="#0E41E8"/>
<path d="M56.4812 216.215H41.3308C31.0993 216.215 23.0322 224.479 23.0322 234.513C23.0322 244.745 31.2961 252.812 41.3308 252.812H56.4812C66.7127 252.812 74.7798 244.548 74.7798 234.513C74.7798 224.479 66.5159 216.215 56.4812 216.215Z" fill="white"/>
<path d="M44.6731 155.022H18.3074C8.07594 155.022 0.00878906 163.286 0.00878906 173.32C0.00878906 183.552 8.27269 191.619 18.3074 191.619H44.6731C54.9045 191.619 62.9716 183.355 62.9716 173.32C62.9716 163.286 54.7078 155.022 44.6731 155.022Z" fill="#3BDBFC"/>
<path d="M191.827 241.989H129.848C119.617 241.989 111.55 250.253 111.55 260.288C111.55 270.519 119.814 278.586 129.848 278.586H191.827C202.059 278.586 210.126 270.322 210.126 260.288C210.126 250.253 201.862 241.989 191.827 241.989Z" fill="#009B00"/>
<path d="M191.84 184.338H104.479C94.2478 184.338 86.1807 192.602 86.1807 202.637C86.1807 212.868 94.4445 220.935 104.479 220.935H191.84C202.072 220.935 210.139 212.671 210.139 202.637C210.139 192.405 201.875 184.338 191.84 184.338Z" fill="white"/>
<path d="M381.691 241.989H244.157C233.925 241.989 225.858 250.253 225.858 260.288C225.858 270.519 234.122 278.586 244.157 278.586H381.691C391.923 278.586 399.99 270.322 399.99 260.288C399.99 250.253 391.726 241.989 381.691 241.989Z" fill="#0E41E8"/>
<path d="M408.057 184.338H244.157C233.925 184.338 225.858 192.602 225.858 202.637C225.858 212.868 234.122 220.935 244.157 220.935H408.057C418.289 220.935 426.356 212.671 426.356 202.637C426.356 192.405 418.092 184.338 408.057 184.338Z" fill="#EAC300"/>
<path d="M85.9915 311.444C95.9888 311.444 104.093 303.34 104.093 293.343C104.093 283.345 95.9888 275.241 85.9915 275.241C75.9941 275.241 67.8896 283.345 67.8896 293.343C67.8896 303.34 75.9941 311.444 85.9915 311.444Z" fill="#3BDBFC"/>
</svg>
