<svg width="20" height="21" viewBox="0 0 20 21" fill="none" xmlns="http://www.w3.org/2000/svg">
<path d="M5.83331 5.49997C5.66849 5.49997 5.50737 5.54885 5.37033 5.64042C5.23329 5.73198 5.12648 5.86213 5.06341 6.0144C5.00033 6.16668 4.98383 6.33423 5.01599 6.49588C5.04814 6.65753 5.12751 6.80602 5.24405 6.92256C5.36059 7.03911 5.50908 7.11847 5.67073 7.15063C5.83238 7.18278 5.99994 7.16628 6.15221 7.10321C6.30448 7.04013 6.43463 6.93332 6.5262 6.79628C6.61777 6.65924 6.66664 6.49812 6.66664 6.33331C6.66664 6.11229 6.57884 5.90033 6.42256 5.74405C6.26628 5.58777 6.05432 5.49997 5.83331 5.49997ZM18.0916 10.3166L10.1916 2.43331C10.1139 2.34953 10.0198 2.28262 9.91519 2.23674C9.81054 2.19087 9.69757 2.16701 9.58331 2.16664H4.58331C4.47363 2.16601 4.36492 2.18703 4.26338 2.2285C4.16185 2.26997 4.06951 2.33107 3.99164 2.40831L1.90831 4.48331C1.83107 4.56117 1.76997 4.65352 1.7285 4.75505C1.68703 4.85658 1.66601 4.9653 1.66664 5.07497V10.075C1.66971 10.2956 1.75603 10.5069 1.90831 10.6666L9.81664 18.5833C9.97633 18.7356 10.1877 18.8219 10.4083 18.825C10.518 18.8256 10.6267 18.8046 10.7282 18.7631C10.8298 18.7216 10.9221 18.6605 11 18.5833L18.0916 11.4916C18.1689 11.4138 18.23 11.3214 18.2715 11.2199C18.3129 11.1184 18.3339 11.0096 18.3333 10.9C18.3282 10.6822 18.242 10.4742 18.0916 10.3166ZM10.4083 16.825L3.33331 9.74164V5.41664L4.91664 3.83331H9.23331L16.3166 10.9083L10.4083 16.825Z" fill="#267FE1"/>
</svg>
