<svg width="18" height="19" viewBox="0 0 18 19" fill="none" xmlns="http://www.w3.org/2000/svg">
<path d="M9.00002 6.16669L12.17 8.47002L9.00002 6.16669ZM9.00002 6.16669L5.83002 8.47002L9.00002 6.16669ZM9.00002 6.16669V3.66669V6.16669ZM12.17 8.47002L10.9592 12.1967L12.17 8.47002ZM12.17 8.47002L14.4167 7.41669L12.17 8.47002ZM10.9592 12.1967H7.04169H10.9592ZM10.96 12.1967L12.3334 14.0834L10.96 12.1967ZM7.04085 12.1967L5.83002 8.47002L7.04085 12.1967ZM7.04085 12.1967L5.66669 14.0834L7.04085 12.1967ZM5.83002 8.47002L3.58335 7.41669L5.83002 8.47002ZM3.58335 7.41669L0.708354 10.3334L3.58335 7.41669ZM3.58335 7.41669L2.75002 3.98752L3.58335 7.41669ZM14.4167 7.41669L17.2917 10.3334L14.4167 7.41669ZM14.4167 7.41669L15.25 3.98752L14.4167 7.41669ZM9.00002 3.66669L6.18669 1.65335L9.00002 3.66669ZM9.00002 3.66669L11.8134 1.65335L9.00002 3.66669ZM5.66669 14.0834L1.78169 13.6667L5.66669 14.0834ZM5.66669 14.0834L7.75002 17.74L5.66669 14.0834ZM12.3334 14.0834L16.2184 13.6667L12.3334 14.0834ZM12.3334 14.0834L10.25 17.74L12.3334 14.0834ZM17.3334 9.50002C17.3334 14.1025 13.6025 17.8334 9.00002 17.8334C4.39752 17.8334 0.666687 14.1025 0.666687 9.50002C0.666687 4.89752 4.39752 1.16669 9.00002 1.16669C13.6025 1.16669 17.3334 4.89752 17.3334 9.50002Z" stroke="#56B694" stroke-width="1.2" stroke-linecap="round" stroke-linejoin="round"/>
</svg>
