<svg width="20" height="14" viewBox="0 0 20 14" fill="none" xmlns="http://www.w3.org/2000/svg">
<path fill-rule="evenodd" clip-rule="evenodd" d="M6.52219 0.833462C6.17088 0.825721 5.87345 1.12111 5.85713 1.49469C5.84694 1.71778 5.8133 1.93529 5.75653 2.13936C5.57265 2.80028 5.16791 3.32478 4.6151 3.59832C4.0623 3.87203 3.34062 3.9208 2.42018 3.48593C2.17719 3.37106 1.92093 3.22413 1.65467 3.03479C1.54737 2.95908 1.42158 2.91852 1.29302 2.91852C1.0429 2.91852 0.814017 3.07148 0.70541 3.31113C0.542349 3.67232 0.412918 4.06277 0.310561 4.47875C-0.135237 6.28977 -0.0893567 8.54784 0.372874 10.4486C0.460957 10.8101 0.565491 11.1571 0.68633 11.4876C0.782419 11.7544 1.02395 11.9321 1.29273 11.9333C1.55596 11.9333 1.68743 11.9344 1.94251 11.9346V12.6241C1.94251 13.5491 3.24815 13.5491 3.24815 12.6241V11.9359C3.72861 11.9367 4.10248 11.9364 4.55264 11.9373V12.6241C4.55264 13.5491 5.85712 13.5491 5.85712 12.6241V11.9399C7.76159 11.944 8.82945 11.9438 10.207 11.9333V12.6241C10.207 13.5491 11.5126 13.5491 11.5126 12.6241V11.9211C11.9947 11.9133 12.3981 11.8979 12.8171 11.8845V12.6241V12.6394C12.8171 13.0201 13.1115 13.3333 13.4695 13.3333C13.8274 13.3333 14.1217 13.0201 14.1217 12.6394V12.6241V11.8249C14.5801 11.7975 15.0421 11.7717 15.4262 11.7288V12.6241C15.4262 13.0051 15.7208 13.3185 16.0791 13.3185C16.4372 13.3185 16.7319 13.0051 16.7319 12.6241V11.5173C17.5955 11.3255 18.2529 11.0478 18.8263 10.6381C19.4 10.2285 19.7852 9.7233 19.9333 9.15885C20.0812 8.59456 19.9683 8.02528 19.7409 7.56581C19.2861 6.64697 18.4328 6.02787 17.5881 5.72769C17.5708 5.7201 17.5534 5.71329 17.5358 5.70725C17.5358 5.70725 15.4287 5.1713 13.5434 4.39735C11.6642 3.62606 6.77721 0.894173 6.77721 0.894173C6.69685 0.855934 6.60998 0.83532 6.52219 0.833462ZM7.01268 2.51322C7.2018 2.60301 7.87051 2.91589 8.27639 3.10802C7.92726 3.87698 7.53708 4.47722 7.12345 4.9299C6.21541 5.92381 5.20559 6.28824 4.23539 6.37788C3.01331 6.49106 1.91673 6.13219 1.38692 5.92009C1.42987 5.53584 1.48927 5.16754 1.57182 4.83253C1.59191 4.75032 1.62205 4.68994 1.64418 4.61145C1.72571 4.65495 1.80942 4.71704 1.89022 4.75527C3.08975 5.3219 4.24937 5.31092 5.16426 4.85823C6.079 4.40522 6.72863 3.54044 7.00887 2.53369C7.01062 2.52687 7.01078 2.51987 7.01268 2.51322ZM9.46745 3.66875C10.2642 4.04233 9.91511 4.75865 9.62459 5.37962C9.57276 5.48117 9.54568 5.59466 9.54568 5.7103C9.54568 6.09069 9.84007 6.40356 10.1978 6.40356C10.452 6.40356 10.6839 6.24565 10.7903 6.0001L11.2999 4.91777C11.771 5.13048 12.1428 5.29041 12.5242 5.45404L12.2337 6.07052C12.1876 6.16744 12.1634 6.27472 12.1634 6.38341C12.1634 6.76425 12.4582 7.07761 12.8165 7.07761C13.0624 7.07761 13.2883 6.92992 13.3991 6.6963L13.7507 5.94716C15.4886 6.60094 17.1216 7.02577 17.1739 7.03909C18.2333 7.3089 19.0959 8.77337 18.0987 9.48546C17.2755 10.0731 16.1791 10.3548 13.5777 10.4744C11.0696 10.5898 7.88197 10.5439 1.7658 10.5408C1.72169 10.3938 1.67379 10.2567 1.63579 10.1005C1.4308 9.25788 1.32394 8.29508 1.31608 7.35475C2.02874 7.60308 3.10028 7.87664 4.35046 7.76099C5.56251 7.6489 6.91735 7.13955 8.05761 5.89159C8.58481 5.31474 9.05952 4.57471 9.46745 3.66875Z" fill="#267FE1"/>
</svg>
